<?xml version="1.0" standalone="no"?>
<!DOCTYPE svg PUBLIC "-//W3C//DTD SVG 20010904//EN"
 "http://www.w3.org/TR/2001/REC-SVG-20010904/DTD/svg10.dtd">
<svg version="1.0" xmlns="http://www.w3.org/2000/svg"
 width="350.000000pt" height="165.000000pt" viewBox="0 0 350.000000 165.000000"
 preserveAspectRatio="xMidYMid meet">

<g transform="translate(0.000000,165.000000) scale(0.100000,-0.100000)"
fill="#000000" stroke="none">
<path d="M210 1120 l0 -280 555 0 555 0 0 273 0 274 -412 6 c-227 4 -477 7
-555 7 l-143 0 0 -280z m370 162 c42 -21 60 -53 60 -108 0 -73 -62 -124 -150
-124 l-40 0 0 -66 0 -65 -47 3 -48 3 -3 188 -2 187 97 0 c73 0 107 -4 133 -18z
m599 -155 c30 -94 56 -180 59 -189 4 -16 -3 -18 -56 -18 -55 0 -60 2 -66 25
-6 23 -11 25 -60 25 -49 0 -54 -2 -60 -25 -6 -23 -11 -25 -66 -25 -33 0 -60 2
-60 5 0 7 112 359 117 368 2 4 34 7 71 7 l67 0 54 -173z"/>
<path d="M450 1175 c0 -34 1 -35 39 -35 31 0 41 4 46 20 9 30 -12 50 -51 50
-32 0 -34 -2 -34 -35z"/>
<path d="M1047 1134 c-4 -16 -9 -39 -13 -51 -5 -20 -3 -23 20 -23 30 0 30 0
12 59 -13 44 -13 44 -19 15z"/>
<path d="M1890 1120 l0 -280 280 0 280 0 0 280 0 280 -280 0 -280 0 0 -280z
m346 171 c48 -22 74 -54 74 -93 0 -27 -2 -28 -49 -28 -40 0 -50 4 -54 20 -6
22 -53 38 -69 22 -20 -20 1 -40 65 -61 99 -33 133 -84 104 -154 -20 -47 -66
-71 -137 -71 -87 0 -150 48 -150 114 0 17 6 20 50 20 28 0 50 -4 50 -10 0 -18
48 -42 70 -35 37 12 17 36 -48 60 -105 38 -138 87 -108 159 11 27 27 42 58 56
54 24 92 25 144 1z"/>
<path d="M207 703 c-4 -3 -7 -44 -7 -90 0 -67 3 -83 15 -83 10 0 15 11 15 35
0 33 2 35 33 35 60 0 90 63 45 94 -22 16 -89 22 -101 9z m81 -25 c28 -28 8
-58 -39 -58 -15 0 -19 7 -19 35 0 30 3 35 23 35 13 0 28 -5 35 -12z"/>
<path d="M360 620 c0 -88 16 -126 22 -53 4 53 30 55 53 3 10 -22 24 -40 32
-40 17 0 16 4 -3 41 -14 28 -14 32 0 48 39 43 8 91 -60 91 l-44 0 0 -90z m84
55 c23 -24 9 -45 -30 -45 -29 0 -34 3 -34 23 0 13 3 27 7 30 11 12 41 8 57 -8z"/>
<path d="M517 703 c-4 -3 -7 -37 -7 -74 0 -48 5 -72 16 -83 25 -25 61 -30 89
-12 23 15 25 22 25 96 0 47 -4 80 -10 80 -6 0 -10 -28 -10 -65 0 -52 -4 -69
-20 -85 -16 -16 -25 -18 -40 -10 -17 9 -20 21 -20 85 0 69 -6 86 -23 68z"/>
<path d="M680 620 l0 -90 60 0 c33 0 60 4 60 10 0 6 -23 10 -51 10 -49 0 -50
1 -47 28 2 22 8 28 36 30 43 4 41 22 -4 22 -33 0 -35 2 -32 28 3 25 7 27 51
30 68 4 58 22 -13 22 l-60 0 0 -90z"/>
<path d="M837 703 c-4 -3 -7 -44 -7 -90 l0 -83 55 0 c49 0 57 3 66 24 8 17 8
29 0 45 -8 15 -9 27 -1 40 12 24 4 48 -21 61 -20 11 -82 13 -92 3z m78 -27
c27 -19 13 -46 -25 -46 -27 0 -30 3 -30 30 0 34 22 40 55 16z m3 -75 c25 -16
9 -46 -26 -49 -30 -3 -32 -1 -32 27 0 26 4 31 23 31 12 0 28 -4 35 -9z"/>
<path d="M1002 621 c-24 -73 -28 -91 -16 -91 8 0 17 7 20 15 4 9 19 15 40 15
22 0 37 -6 40 -15 10 -24 37 -19 29 6 -61 191 -71 197 -113 70z m68 -23 c0
-13 -8 -18 -25 -18 -29 0 -29 0 -13 53 l12 40 13 -29 c6 -16 12 -37 13 -46z"/>
<path d="M1200 621 l0 -91 48 0 c26 0 53 5 60 12 14 14 16 126 3 147 -5 7 -32
16 -60 19 l-51 5 0 -92z m81 59 c14 -8 19 -21 19 -55 0 -64 -7 -75 -46 -75
l-34 0 0 63 c0 80 12 93 61 67z"/>
<path d="M1360 620 l0 -90 60 0 c33 0 60 4 60 10 0 6 -23 10 -51 10 -49 0 -50
1 -47 28 2 22 8 28 36 30 43 4 41 22 -4 22 -33 0 -35 2 -32 28 3 25 7 27 51
30 68 4 58 22 -13 22 l-60 0 0 -90z"/>
<path d="M1605 698 c-11 -29 -55 -162 -55 -165 0 -10 29 0 34 12 8 21 66 19
82 -2 25 -35 25 -3 -1 81 -17 57 -31 86 -41 86 -8 0 -17 -6 -19 -12z m45 -115
c0 -2 -13 -3 -29 -3 l-30 0 16 47 16 47 13 -45 c8 -24 14 -45 14 -46z"/>
<path d="M1736 694 c-11 -11 -16 -35 -16 -79 0 -58 3 -66 26 -81 29 -20 69
-11 88 18 15 25 -1 34 -23 14 -11 -10 -30 -16 -43 -14 -21 3 -23 9 -26 60 -3
48 0 58 17 67 23 13 47 6 55 -15 7 -18 26 -18 26 -1 0 40 -74 62 -104 31z"/>
<path d="M1890 690 c-15 -15 -20 -33 -20 -75 0 -62 22 -95 65 -95 25 0 65 31
65 50 0 16 -18 12 -40 -10 -17 -17 -24 -18 -41 -10 -17 10 -20 19 -17 67 4 69
28 92 58 56 19 -24 40 -30 40 -13 0 19 -40 50 -65 50 -14 0 -34 -9 -45 -20z"/>
<path d="M2030 620 l0 -90 60 0 c33 0 60 4 60 10 0 6 -20 10 -45 10 -43 0 -45
1 -45 30 0 27 3 30 30 30 17 0 30 5 30 10 0 6 -13 10 -30 10 -27 0 -30 3 -30
30 0 29 2 30 45 30 25 0 45 5 45 10 0 6 -27 10 -60 10 l-60 0 0 -90z"/>
<path d="M2196 694 c-25 -25 -19 -53 15 -72 17 -9 41 -25 53 -34 20 -17 20
-19 3 -32 -20 -16 -56 -10 -64 10 -7 19 -23 18 -23 -1 0 -27 47 -49 83 -38 28
8 32 13 32 43 0 30 -5 37 -35 52 -53 26 -63 37 -49 54 16 19 35 18 59 -6 25
-25 30 -25 30 0 0 37 -74 55 -104 24z"/>
<path d="M2350 690 c-23 -23 -28 -115 -7 -143 21 -28 72 -32 96 -8 31 31 30
133 -1 155 -31 22 -64 20 -88 -4z m74 -22 c36 -52 2 -143 -44 -118 -16 9 -20
21 -20 63 0 74 32 101 64 55z"/>
<path d="M1852 458 c-14 -14 -16 -28 -2 -28 5 0 14 9 20 20 12 22 1 27 -18 8z"/>
<path d="M222 330 c-23 -66 -27 -90 -17 -90 7 0 15 7 19 15 3 9 19 15 41 15
22 0 38 -6 41 -15 4 -8 12 -15 19 -15 10 0 6 24 -17 90 -17 53 -35 90 -43 90
-8 0 -26 -37 -43 -90z m67 -27 c1 -7 -10 -13 -24 -13 -29 0 -29 0 -13 53 l12
40 12 -34 c7 -19 13 -40 13 -46z"/>
<path d="M420 330 l0 -90 61 0 c37 0 58 4 54 10 -3 6 -26 10 -51 10 l-44 0 0
80 c0 47 -4 80 -10 80 -6 0 -10 -37 -10 -90z"/>
<path d="M615 408 c-11 -29 -55 -162 -55 -165 0 -10 29 0 34 12 8 21 66 19 82
-2 25 -35 25 -3 0 81 -18 58 -32 86 -42 86 -8 0 -17 -6 -19 -12z m39 -90 c6
-26 4 -28 -23 -28 -20 0 -29 4 -26 13 24 67 27 72 34 57 5 -8 11 -27 15 -42z"/>
<path d="M787 414 c-4 -4 -7 -45 -7 -91 l0 -83 66 0 c41 0 63 4 59 10 -3 6
-26 10 -51 10 -42 0 -44 1 -44 30 0 28 3 30 36 30 21 0 33 4 29 10 -3 6 -19
10 -36 10 -24 0 -29 4 -29 24 0 23 5 25 48 28 26 2 46 8 45 13 -3 12 -105 19
-116 9z"/>
<path d="M940 331 l0 -91 48 0 c26 0 53 5 60 12 14 14 16 126 3 147 -5 7 -32
16 -60 19 l-51 5 0 -92z m94 43 c3 -9 6 -31 6 -49 0 -53 -9 -65 -46 -65 l-34
0 0 65 0 65 34 0 c22 0 36 -6 40 -16z"/>
<path d="M1102 338 c3 -78 4 -83 31 -98 24 -13 30 -13 55 0 26 15 27 20 30 98
2 52 -1 82 -8 82 -6 0 -10 -28 -10 -67 0 -72 -5 -86 -32 -96 -32 -12 -48 19
-48 94 0 41 -4 69 -10 69 -7 0 -10 -30 -8 -82z"/>
<path d="M1275 406 c-13 -9 -20 -30 -23 -69 -4 -50 -2 -58 21 -81 15 -14 34
-26 44 -26 25 0 63 28 63 46 0 19 -7 18 -37 -6 -19 -15 -30 -17 -44 -9 -29 15
-27 114 2 130 17 9 25 7 43 -10 26 -25 36 -26 36 -7 0 19 -39 46 -65 46 -12 0
-29 -6 -40 -14z"/>
<path d="M1455 408 c-3 -7 -16 -48 -29 -90 -18 -58 -20 -78 -11 -78 7 0 15 7
19 15 3 9 18 15 40 15 21 0 36 -6 40 -15 3 -8 12 -15 20 -15 12 0 8 18 -16 90
-19 58 -35 90 -44 90 -8 0 -17 -6 -19 -12z m44 -105 c1 -7 -10 -13 -24 -13
-29 0 -29 1 -14 55 l12 40 13 -35 c7 -19 13 -41 13 -47z"/>
<path d="M1587 402 c-12 -13 -17 -37 -17 -80 0 -55 3 -63 26 -78 29 -20 69
-11 88 18 16 26 -2 34 -24 10 -20 -21 -47 -20 -62 2 -14 20 -9 94 8 110 20 21
31 20 51 -4 20 -24 33 -26 33 -6 0 42 -73 62 -103 28z"/>
<path d="M1730 330 c0 -53 4 -90 10 -90 6 0 10 37 10 90 0 53 -4 90 -10 90 -6
0 -10 -37 -10 -90z"/>
<path d="M1812 404 c-19 -13 -22 -24 -22 -79 0 -55 3 -66 22 -79 31 -22 64
-20 88 4 15 15 20 33 20 75 0 42 -5 60 -20 75 -24 24 -57 26 -88 4z m59 -14
c28 -16 28 -115 -1 -130 -46 -25 -80 66 -44 118 17 25 19 26 45 12z"/>
<path d="M1957 413 c-4 -3 -7 -44 -7 -90 0 -67 3 -83 15 -83 12 0 15 14 15 63
l0 62 40 -62 c57 -90 72 -85 68 24 -2 56 -7 88 -15 90 -8 3 -13 -16 -15 -62
l-3 -67 -38 66 c-38 64 -47 73 -60 59z"/>
<path d="M2186 401 c-27 -29 -16 -53 37 -81 50 -26 58 -43 30 -58 -21 -11 -44
-5 -60 17 -13 19 -28 9 -20 -14 17 -43 99 -43 119 0 13 30 -1 52 -50 72 -37
15 -52 41 -31 54 20 13 27 11 49 -11 25 -25 41 -26 33 -2 -15 43 -77 57 -107
23z"/>
<path d="M2332 338 c3 -78 4 -83 31 -98 24 -13 30 -13 55 0 26 15 27 20 30 98
2 52 -1 82 -8 82 -6 0 -10 -28 -10 -69 0 -83 -17 -112 -54 -88 -18 12 -21 26
-24 86 -2 39 -7 71 -13 71 -6 0 -9 -32 -7 -82z"/>
<path d="M2490 330 c0 -73 3 -90 15 -90 10 0 15 11 15 35 0 33 2 35 33 35 60
0 90 63 45 94 -12 9 -42 16 -65 16 l-43 0 0 -90z m81 60 c39 -21 18 -60 -32
-60 -15 0 -19 7 -19 35 0 37 14 44 51 25z"/>
<path d="M2650 330 l0 -90 61 0 c37 0 58 4 54 10 -3 6 -26 10 -51 10 -44 0
-45 1 -42 28 2 22 8 28 36 30 43 4 41 22 -3 22 -30 0 -35 3 -35 24 0 23 5 25
48 28 64 4 55 22 -13 26 l-55 3 0 -91z"/>
<path d="M2800 330 c0 -88 16 -126 22 -53 4 54 31 56 58 4 11 -23 25 -41 30
-41 14 0 13 6 -6 42 -15 28 -15 32 0 40 10 6 16 22 16 43 0 41 -20 55 -79 55
l-41 0 0 -90z m97 44 c8 -21 -24 -46 -52 -42 -13 2 -21 12 -23 31 -3 25 -1 27
33 27 24 0 38 -5 42 -16z"/>
<path d="M2960 330 c0 -53 4 -90 10 -90 6 0 10 37 10 90 0 53 -4 90 -10 90 -6
0 -10 -37 -10 -90z"/>
<path d="M3042 404 c-19 -13 -22 -24 -22 -79 0 -58 3 -66 25 -81 28 -18 64
-13 89 12 24 24 22 118 -4 144 -24 24 -57 26 -88 4z m59 -14 c27 -15 28 -115
1 -129 -14 -7 -25 -6 -40 5 -27 19 -30 88 -5 116 19 21 19 21 44 8z"/>
<path d="M3187 413 c-4 -3 -7 -44 -7 -90 0 -67 3 -83 15 -83 11 0 15 11 15 41
0 33 3 40 18 37 9 -2 25 -20 35 -40 10 -21 25 -38 33 -38 11 0 11 6 -3 35 -15
32 -15 36 0 53 39 43 5 92 -64 92 -19 0 -39 -3 -42 -7z m90 -39 c7 -19 -21
-44 -49 -44 -13 0 -18 8 -18 30 0 27 3 30 30 30 19 0 33 -6 37 -16z"/>
</g>
</svg>
